# Blender v2.69 (sub 0) OBJ File: 'Cube.blend'
# www.blender.org
mtllib cube.mtl
o Cube
v 1.000000 -1.000000 1.000000
v 1.000000 1.000000 1.000000
v -1.000000 1.000000 1.000000
v -1.000000 -1.000000 1.000000
v 1.000000 -1.000000 -1.000000
v 0.999999 1.000001 -1.000000
v -1.000000 1.000000 -1.000000
v -1.000000 -1.000000 -1.000000
vt 0.482402 0.286239
vt 0.482402 0.521887
vt 0.246755 0.286239
vt 0.482402 0.993181
vt 0.246755 0.993181
vt 0.482402 0.757534
vt 0.718048 0.993181
vt 0.718048 0.757535
vt 0.246755 0.521887
vt 0.011108 0.757534
vt 0.246755 0.757534
vt 0.011108 0.993181
vt 0.482403 0.050592
vt 0.246755 0.050592
vn 0.000000 0.000000 1.000000
vn 0.000000 0.000000 -1.000000
vn 1.000000 0.000000 0.000000
vn -0.000000 1.000000 0.000000
vn -1.000000 -0.000000 0.000000
vn 0.000000 -1.000000 -0.000000
vn -0.000001 1.000000 -0.000000
usemtl Material
s off
f 1/1/1 2/2/1 4/3/1
f 5/4/2 8/5/2 6/6/2
f 1/7/3 5/4/3 2/8/3
f 2/2/4 6/6/4 3/9/4
f 3/10/5 7/11/5 4/12/5
f 5/13/6 1/1/6 8/14/6
f 2/2/1 3/9/1 4/3/1
f 8/5/2 7/11/2 6/6/2
f 5/4/3 6/6/3 2/8/3
f 6/6/7 7/11/7 3/9/7
f 7/11/5 8/5/5 4/12/5
f 1/1/6 4/3/6 8/14/6
