# Blender v2.69 (sub 0) OBJ File: 'arkanoid.blend'
# www.blender.org
mtllib arkanoid_brick.mtl
o Cube.002_Cube.003
v -0.100000 -0.037683 0.045036
v -0.100000 -0.037683 -0.045036
v 0.100000 -0.037683 -0.045036
v 0.100000 -0.037683 0.045036
v -0.100000 0.037683 0.045036
v -0.100000 0.037683 -0.045036
v 0.100000 0.037683 -0.045036
v 0.100000 0.037683 0.045036
vt 0.695597 0.008359
vt 0.994939 0.008359
vt 0.695597 0.258823
vt 0.008476 0.441757
vt 0.673143 0.441757
vt 0.008477 0.692220
vt 0.994193 0.521653
vt 0.694851 0.521653
vt 0.994193 0.271189
vt 0.673143 0.692220
vt 0.008477 0.142415
vt 0.673143 0.991562
vt 0.994939 0.258823
vt 0.694851 0.271189
vt 0.673143 0.142415
vt 0.008477 0.991562
vn -1.000000 0.000000 0.000000
vn 0.000000 0.000000 -1.000000
vn 1.000000 0.000000 0.000000
vn 0.000000 0.000000 1.000000
vn 0.000000 -1.000000 0.000000
vn 0.000000 1.000000 0.000000
usemtl None
s off
f 5/1/1 6/2/1 1/3/1
f 6/4/2 7/5/2 2/6/2
f 7/7/3 8/8/3 3/9/3
f 8/10/4 5/6/4 4/5/4
f 1/4/5 2/11/5 4/5/5
f 8/10/6 7/12/6 5/6/6
f 6/2/1 2/13/1 1/3/1
f 7/5/2 3/10/2 2/6/2
f 8/8/3 4/14/3 3/9/3
f 5/6/4 1/4/4 4/5/4
f 2/11/5 3/15/5 4/5/5
f 7/12/6 6/16/6 5/6/6
