# Blender v2.69 (sub 0) OBJ File: 'arkanoid.blend'
# www.blender.org
mtllib arkanoid_top_wall.mtl
o Cube.005
v -0.754320 0.037682 -0.045036
v -0.754320 0.037682 0.045036
v 0.754320 0.037683 0.045036
v 0.754320 0.037683 -0.045036
v -0.754320 -0.037683 -0.045036
v -0.754320 -0.037683 0.045036
v 0.754320 -0.037682 0.045036
v 0.754320 -0.037682 -0.045036
vt 1.328741 0.964239
vt 1.328741 0.993975
vt 1.129692 0.964239
vt 0.726880 0.993975
vt 0.726880 0.495912
vt 0.925932 0.993975
vt 0.928287 0.993975
vt 0.928287 0.964239
vt 1.127337 0.993975
vt 0.724525 0.495912
vt 0.724521 0.993975
vt 0.525472 0.495912
vt 0.523117 0.993975
vt 0.285223 0.993975
vt 0.523117 0.495913
vt 0.044965 0.495913
vt 0.282859 0.495913
vt 0.044964 0.993975
vt 1.129692 0.993975
vt 0.925929 0.495912
vt 1.127337 0.964239
vt 0.525472 0.993975
vt 0.285219 0.495913
vt 0.282863 0.993975
vn -1.000000 0.000000 0.000000
vn 0.000000 0.000000 1.000000
vn 1.000000 0.000000 0.000000
vn 0.000000 0.000000 -1.000000
vn -0.000000 1.000000 0.000000
vn 0.000000 -1.000000 0.000000
usemtl None
s off
f 5/1/1 6/2/1 1/3/1
f 6/4/2 7/5/2 2/6/2
f 7/7/3 8/8/3 3/9/3
f 8/10/4 5/11/4 4/12/4
f 1/13/5 2/14/5 4/15/5
f 8/16/6 7/17/6 5/18/6
f 6/2/1 2/19/1 1/3/1
f 7/5/2 3/20/2 2/6/2
f 8/8/3 4/21/3 3/9/3
f 5/11/4 1/22/4 4/12/4
f 2/14/5 3/23/5 4/15/5
f 7/17/6 6/24/6 5/18/6
