# Blender v2.69 (sub 0) OBJ File: 'bowling.blend'
# www.blender.org
mtllib lane.mtl
o bowling_lane.001_Plane.001
v 1.187420 0.175829 21.555208
v 1.912250 0.175829 21.555208
v 1.912250 0.175829 -21.540508
v 1.912250 0.175829 12.328747
v 1.912250 0.175829 -19.744350
v 1.812664 0.175829 -19.744349
v 1.790426 0.100263 -21.555210
v 1.790426 0.100264 -19.743776
v 1.722495 -0.029382 -21.555210
v 1.722495 -0.029382 -19.743776
v 1.620827 -0.137769 -21.555210
v 1.620827 -0.137769 -19.743776
v 1.500903 -0.175829 -21.555210
v 1.500903 -0.175829 -19.743776
v 1.380978 -0.137769 -21.555210
v 1.380978 -0.137769 -19.743776
v 1.279311 -0.029383 -21.555210
v 1.279311 -0.029383 -19.743776
v 1.211379 0.100263 -21.555210
v 1.211379 0.100264 -19.743776
v 1.187420 0.175829 -21.540508
v 1.187420 0.175829 -19.744349
v 1.812424 0.175829 -21.540508
v 1.790426 0.100264 12.326670
v 1.722495 -0.029382 12.326670
v 1.620827 -0.137769 12.326670
v 1.500903 -0.175829 12.326670
v 1.380978 -0.137769 12.326670
v 1.279311 -0.029383 12.326670
v 1.211379 0.100264 12.326670
v 1.187420 0.175829 12.328747
v 1.808128 0.175829 12.328746
v 1.497774 0.175829 12.328746
v -1.187420 0.175829 21.555208
v -1.912250 0.175829 21.555208
v -1.912250 0.175829 -21.540508
v -1.912250 0.175829 12.328747
v -1.912250 0.175829 -19.744350
v -1.812664 0.175829 -19.744349
v -1.790426 0.100263 -21.555210
v -1.790426 0.100264 -19.743776
v -1.722495 -0.029382 -21.555210
v -1.722495 -0.029382 -19.743776
v -1.620827 -0.137769 -21.555210
v -1.620827 -0.137769 -19.743776
v -1.500903 -0.175829 -21.555210
v -1.500903 -0.175829 -19.743776
v -1.380978 -0.137769 -21.555210
v -1.380978 -0.137769 -19.743776
v -1.279311 -0.029383 -21.555210
v -1.279311 -0.029383 -19.743776
v -1.211379 0.100263 -21.555210
v -1.211379 0.100264 -19.743776
v -1.187420 0.175829 -21.540508
v -1.187420 0.175829 -19.744349
v -1.812424 0.175829 -21.540508
v -1.790426 0.100264 12.326670
v -1.722495 -0.029382 12.326670
v -1.620827 -0.137769 12.326670
v -1.500903 -0.175829 12.326670
v -1.380978 -0.137769 12.326670
v -1.279311 -0.029383 12.326670
v -1.211379 0.100264 12.326670
v -1.187420 0.175829 12.328747
v -1.808128 0.175829 12.328746
v -1.497774 0.175829 12.328746
v 1.187420 -0.680832 21.555210
v 1.912250 -0.680832 21.555210
v 1.912250 -0.680832 -21.540508
v 1.912250 -0.680832 12.328747
v 1.912250 -0.680832 -19.744350
v 1.790426 -0.680832 -21.555210
v 1.722495 -0.680832 -21.555210
v 1.620827 -0.680832 -21.555210
v 1.500903 -0.680832 -21.555210
v 1.380978 -0.680832 -21.555210
v 1.279311 -0.680832 -21.555210
v 1.211379 -0.680832 -21.555210
v 1.187420 -0.680832 -21.540508
v 1.812424 -0.680832 -21.540508
v -1.187420 -0.680832 21.555210
v -1.912250 -0.680832 21.555210
v -1.912250 -0.680832 -21.540508
v -1.912250 -0.680832 12.328747
v -1.912250 -0.680832 -19.744350
v -1.790426 -0.680832 -21.555210
v -1.722495 -0.680832 -21.555210
v -1.620827 -0.680832 -21.555210
v -1.500903 -0.680832 -21.555210
v -1.380978 -0.680832 -21.555210
v -1.279311 -0.680832 -21.555210
v -1.211379 -0.680832 -21.555210
v -1.187420 -0.680832 -21.540508
v -1.812424 -0.680832 -21.540508
vt 0.988429 0.961164
vt 0.942429 0.961164
vt 0.942429 0.982270
vt 0.988429 0.943386
vt 0.988429 0.913045
vt 0.942429 0.943386
vt 0.988429 0.884468
vt 0.942429 0.913045
vt 0.988429 0.861194
vt 0.942429 0.884468
vt 0.988429 0.838087
vt 0.942429 0.861194
vt 0.988429 0.809699
vt 0.942429 0.838087
vt 0.988429 0.778658
vt 0.942429 0.809699
vt 0.988429 0.760470
vt 0.942429 0.760470
vt 0.116083 0.760470
vt 0.942429 0.778658
vt 0.167952 0.778658
vt 0.209760 0.809699
vt 0.230472 0.838087
vt 0.238641 0.861194
vt 0.230472 0.884468
vt 0.209760 0.913045
vt 0.116083 0.982270
vt 0.116083 0.961164
vt 0.988429 0.229376
vt 0.014396 0.760470
vt 0.014396 0.982270
vt 0.167952 0.943386
vt 0.116083 0.862336
vt 0.988429 0.035252
vt 0.988429 0.012925
vt 0.942429 0.012925
vt 0.988429 0.053090
vt 0.942429 0.053090
vt 0.988429 0.083405
vt 0.942429 0.083405
vt 0.988429 0.111554
vt 0.942429 0.111554
vt 0.988429 0.134346
vt 0.942429 0.134346
vt 0.988429 0.156907
vt 0.942429 0.156907
vt 0.988429 0.184437
vt 0.942429 0.184437
vt 0.988429 0.214058
vt 0.942429 0.214058
vt 0.942429 0.229376
vt 0.116083 0.229376
vt 0.167952 0.214058
vt 0.209760 0.184437
vt 0.230472 0.156907
vt 0.238641 0.134346
vt 0.230472 0.111554
vt 0.209760 0.083405
vt 0.116083 0.012925
vt 0.116083 0.035252
vt 0.014396 0.229376
vt 0.014396 0.012925
vt 0.942429 0.035252
vt 0.116083 0.134919
vt 0.167952 0.053090
vt 0.988429 0.982270
vn 0.000000 1.000000 0.000000
vn -0.885768 0.464129 -0.000000
vn -0.729353 0.684137 0.000000
vn -0.302499 0.953150 0.000000
vn 0.302499 0.953150 -0.000000
vn 0.729352 0.684139 0.000000
vn 0.885770 0.464125 0.000000
vn 0.953234 0.302234 0.000000
vn 0.953233 0.302235 0.000000
vn 0.885771 0.464123 0.000000
vn -0.729355 0.684136 0.000000
vn -0.885768 0.464128 0.000000
vn -0.960153 0.279476 0.000128
vn -0.973643 0.228079 0.000000
vn 0.000000 0.027464 -0.999623
vn -0.006243 0.003274 -0.999975
vn -0.004966 0.004668 -0.999977
vn -0.001849 0.005887 -0.999981
vn 0.001871 0.005920 -0.999981
vn 0.005042 0.004739 -0.999976
vn 0.006366 0.003337 -0.999974
vn -0.000005 0.027476 -0.999622
vn 0.885768 0.464129 -0.000000
vn 0.729353 0.684137 0.000000
vn -0.729352 0.684139 0.000000
vn -0.885770 0.464125 0.000000
vn -0.953233 0.302236 -0.000000
vn -0.953233 0.302235 0.000000
vn -0.885771 0.464123 0.000000
vn 0.729355 0.684136 0.000000
vn 0.885768 0.464128 0.000000
vn 0.960153 0.279476 0.000128
vn 0.959324 0.282308 -0.000136
vn 0.006243 0.003274 -0.999975
vn 0.004966 0.004668 -0.999977
vn 0.001849 0.005887 -0.999981
vn -0.001871 0.005920 -0.999981
vn -0.005042 0.004739 -0.999976
vn -0.006366 0.003337 -0.999974
vn 0.000005 0.027476 -0.999622
vn 0.000000 0.000000 -1.000000
vn 0.000000 0.000002 1.000000
vn 1.000000 0.000000 0.000000
vn -1.000000 0.000000 0.000000
vn -0.522965 0.000000 -0.852354
vn 0.523058 0.000000 -0.852297
vn 0.555719 0.000000 -0.831371
vn -0.555625 0.000000 -0.831433
vn -0.885769 0.464127 0.000000
vn -0.729355 0.684135 0.000000
vn 0.953234 0.302235 -0.000000
vn 0.953233 0.302236 0.000000
vn 0.885770 0.464124 0.000000
vn 0.729351 0.684139 0.000000
vn -0.302498 0.953150 0.000000
vn -0.885769 0.464126 0.000000
vn -0.959325 0.282303 -0.000000
vn -0.959324 0.282308 -0.000136
vn 0.885769 0.464127 0.000000
vn 0.729355 0.684135 0.000000
vn -0.953234 0.302234 0.000000
vn -0.885770 0.464124 0.000000
vn -0.729351 0.684139 0.000000
vn 0.302498 0.953150 0.000000
vn 0.885769 0.464126 0.000000
vn 0.959325 0.282304 -0.000000
vn 0.973643 0.228079 0.000000
vn -0.523058 0.000000 -0.852297
vn 0.522965 0.000000 -0.852354
vn 0.555625 0.000000 -0.831433
vn -0.555719 0.000000 -0.831371
vn 0.000000 -1.000000 -0.000002
vn 0.000000 -1.000000 0.000000
vn 0.000000 -1.000000 -0.000004
vn 0.000000 -1.000000 -0.000005
vn 0.000000 -1.000000 0.000010
vn 0.000000 -1.000000 -0.000017
vn 0.000000 -1.000000 0.000003
usemtl Lane
s off
f 23/1/1 6/2/1 5/3/1
f 7/4/2 9/5/2 8/6/2
f 9/5/3 11/7/3 10/8/3
f 11/7/4 13/9/4 12/10/4
f 13/9/5 15/11/5 14/12/5
f 15/11/6 17/13/6 16/14/6
f 17/13/7 19/15/7 18/16/7
f 19/15/8 21/17/8 22/18/8
f 22/18/9 31/19/9 20/20/9
f 20/20/10 30/21/10 18/16/10
f 18/16/6 29/22/6 16/14/6
f 16/14/5 28/23/5 14/12/5
f 14/12/4 27/24/4 12/10/4
f 12/10/11 26/25/11 10/8/11
f 10/8/12 25/26/12 8/6/12
f 4/27/1 5/3/1 32/28/1
f 21/17/1 54/29/1 22/18/1
f 31/19/1 1/30/1 2/31/1
f 23/1/13 7/4/13 6/2/13
f 8/6/14 24/32/14 32/28/14
f 32/28/15 24/32/15 33/33/15
f 24/32/16 25/26/16 33/33/16
f 25/26/17 26/25/17 33/33/17
f 26/25/18 27/24/18 33/33/18
f 27/24/19 28/23/19 33/33/19
f 28/23/20 29/22/20 33/33/20
f 29/22/21 30/21/21 33/33/21
f 31/19/22 33/33/22 30/21/22
f 56/34/1 36/35/1 38/36/1
f 40/37/23 41/38/23 42/39/23
f 42/39/24 43/40/24 44/41/24
f 44/41/5 45/42/5 46/43/5
f 46/43/4 47/44/4 48/45/4
f 48/45/25 49/46/25 50/47/25
f 50/47/26 51/48/26 52/49/26
f 52/49/27 53/50/27 55/51/27
f 55/51/28 53/50/28 64/52/28
f 53/50/29 51/48/29 63/53/29
f 51/48/25 49/46/25 62/54/25
f 49/46/4 47/44/4 61/55/4
f 47/44/5 45/42/5 60/56/5
f 45/42/30 43/40/30 59/57/30
f 43/40/31 41/38/31 58/58/31
f 37/59/1 65/60/1 38/36/1
f 34/61/1 37/59/1 35/62/1
f 56/34/32 39/63/32 40/37/32
f 41/38/33 39/63/33 65/60/33
f 65/60/15 66/64/15 57/65/15
f 57/65/34 66/64/34 58/58/34
f 58/58/35 66/64/35 59/57/35
f 59/57/36 66/64/36 60/56/36
f 60/56/37 66/64/37 61/55/37
f 61/55/38 66/64/38 62/54/38
f 62/54/39 66/64/39 63/53/39
f 64/52/40 63/53/40 66/64/40
f 31/19/1 64/52/1 1/30/1
f 50/47/41 91/47/41 90/45/41
f 11/7/41 74/7/41 75/9/41
f 56/34/41 94/34/41 36/35/41
f 17/13/41 77/13/41 19/15/41
f 1/30/42 34/61/42 67/30/42
f 46/43/41 89/43/41 44/41/41
f 7/4/41 72/4/41 73/5/41
f 5/3/43 71/3/43 3/66/43
f 35/62/44 37/59/44 82/62/44
f 52/49/41 92/49/41 91/47/41
f 13/9/41 75/9/41 15/11/41
f 4/27/43 2/31/43 70/27/43
f 19/15/45 78/15/45 21/17/45
f 54/29/41 21/17/41 93/29/41
f 36/35/44 83/35/44 38/36/44
f 42/39/41 87/39/41 40/37/41
f 4/27/43 70/27/43 5/3/43
f 48/45/41 90/45/41 89/43/41
f 9/5/41 73/5/41 74/7/41
f 54/29/46 93/29/46 92/49/46
f 15/11/41 76/11/41 17/13/41
f 23/1/47 80/1/47 72/4/47
f 34/61/42 35/62/42 81/61/42
f 38/36/44 85/36/44 37/59/44
f 3/66/41 69/66/41 23/1/41
f 40/37/48 86/37/48 56/34/48
f 44/41/41 88/41/41 42/39/41
f 2/31/42 1/30/42 68/31/42
f 3/66/1 23/1/1 5/3/1
f 9/5/49 10/8/49 8/6/49
f 11/7/50 12/10/50 10/8/50
f 13/9/4 14/12/4 12/10/4
f 15/11/5 16/14/5 14/12/5
f 17/13/6 18/16/6 16/14/6
f 19/15/10 20/20/10 18/16/10
f 20/20/51 19/15/51 22/18/51
f 31/19/52 30/21/52 20/20/52
f 30/21/53 29/22/53 18/16/53
f 29/22/54 28/23/54 16/14/54
f 28/23/5 27/24/5 14/12/5
f 27/24/55 26/25/55 12/10/55
f 26/25/11 25/26/11 10/8/11
f 25/26/56 24/32/56 8/6/56
f 5/3/1 6/2/1 32/28/1
f 54/29/1 55/51/1 22/18/1
f 55/51/1 64/52/1 22/18/1
f 64/52/1 31/19/1 22/18/1
f 33/33/1 31/19/1 2/31/1
f 32/28/1 33/33/1 2/31/1
f 4/27/1 32/28/1 2/31/1
f 7/4/57 8/6/57 6/2/57
f 6/2/58 8/6/58 32/28/58
f 39/63/1 56/34/1 38/36/1
f 41/38/59 43/40/59 42/39/59
f 43/40/60 45/42/60 44/41/60
f 45/42/5 47/44/5 46/43/5
f 47/44/4 49/46/4 48/45/4
f 49/46/25 51/48/25 50/47/25
f 51/48/29 53/50/29 52/49/29
f 54/29/61 52/49/61 55/51/61
f 53/50/27 63/53/27 64/52/27
f 51/48/62 62/54/62 63/53/62
f 49/46/63 61/55/63 62/54/63
f 47/44/4 60/56/4 61/55/4
f 45/42/64 59/57/64 60/56/64
f 43/40/30 58/58/30 59/57/30
f 41/38/65 57/65/65 58/58/65
f 65/60/1 39/63/1 38/36/1
f 64/52/1 66/64/1 34/61/1
f 66/64/1 65/60/1 34/61/1
f 65/60/1 37/59/1 34/61/1
f 39/63/66 41/38/66 40/37/66
f 57/65/67 41/38/67 65/60/67
f 64/52/1 34/61/1 1/30/1
f 48/45/41 50/47/41 90/45/41
f 13/9/41 11/7/41 75/9/41
f 94/34/41 83/35/41 36/35/41
f 77/13/41 78/15/41 19/15/41
f 34/61/42 81/61/42 67/30/42
f 89/43/41 88/41/41 44/41/41
f 9/5/41 7/4/41 73/5/41
f 71/3/43 69/66/43 3/66/43
f 37/59/44 84/59/44 82/62/44
f 50/47/41 52/49/41 91/47/41
f 75/9/41 76/11/41 15/11/41
f 2/31/43 68/31/43 70/27/43
f 78/15/68 79/17/68 21/17/68
f 21/17/41 79/17/41 93/29/41
f 83/35/44 85/36/44 38/36/44
f 87/39/41 86/37/41 40/37/41
f 70/27/43 71/3/43 5/3/43
f 46/43/41 48/45/41 89/43/41
f 11/7/41 9/5/41 74/7/41
f 52/49/69 54/29/69 92/49/69
f 76/11/41 77/13/41 17/13/41
f 7/4/70 23/1/70 72/4/70
f 35/62/42 82/62/42 81/61/42
f 85/36/44 84/59/44 37/59/44
f 69/66/41 80/1/41 23/1/41
f 86/37/71 94/34/71 56/34/71
f 88/41/41 87/39/41 42/39/41
f 1/30/42 67/30/42 68/31/42
usemtl Lane_NONE
f 87/37/72 94/35/72 86/34/72
f 80/4/73 73/7/73 72/5/73
f 93/49/73 91/45/73 92/47/73
f 77/15/74 79/17/74 78/17/74
f 70/3/73 68/31/73 67/30/73
f 70/3/73 67/30/73 81/61/73
f 84/59/73 81/61/73 82/62/73
f 70/3/73 81/61/73 84/59/73
f 71/66/73 70/3/73 84/59/73
f 71/66/73 84/59/73 85/59/73
f 69/1/73 71/66/73 85/59/73
f 88/39/75 94/35/75 87/37/75
f 73/7/73 80/4/73 74/9/73
f 93/49/76 90/43/76 91/45/76
f 76/13/76 79/17/76 77/15/76
f 94/35/73 85/59/73 83/36/73
f 88/39/73 85/59/73 94/35/73
f 89/41/73 85/59/73 88/39/73
f 90/43/73 85/59/73 89/41/73
f 93/49/73 85/59/73 90/43/73
f 74/9/73 80/4/73 75/11/73
f 75/11/77 79/17/77 76/13/77
f 75/11/73 80/4/73 79/17/73
f 80/4/78 69/1/78 85/59/78
f 79/17/73 80/4/73 85/59/73
f 93/49/73 79/17/73 85/59/73
