# Blender v2.69 (sub 0) OBJ File: 'bowling.blend'
# www.blender.org
mtllib lane.mtl
o bowling_lane.001_Plane.001
v 1.187420 0.175829 21.555208
v 1.912250 0.175829 21.555208
v 1.912250 0.175829 -21.540508
v 1.912250 0.175829 12.328747
v 1.912250 0.175829 -19.744350
v 1.812664 0.175829 -19.744349
v 1.790426 0.100263 -21.555210
v 1.790426 0.100264 -19.743776
v 1.722495 -0.029382 -21.555210
v 1.722495 -0.029382 -19.743776
v 1.620827 -0.137769 -21.555210
v 1.620827 -0.137769 -19.743776
v 1.500903 -0.175829 -21.555210
v 1.500903 -0.175829 -19.743776
v 1.380978 -0.137769 -21.555210
v 1.380978 -0.137769 -19.743776
v 1.279311 -0.029383 -21.555210
v 1.279311 -0.029383 -19.743776
v 1.211379 0.100263 -21.555210
v 1.211379 0.100264 -19.743776
v 1.187420 0.175829 -21.540508
v 1.187420 0.175829 -19.744349
v 1.812424 0.175829 -21.540508
v 1.790426 0.100264 12.326670
v 1.722495 -0.029382 12.326670
v 1.620827 -0.137769 12.326670
v 1.500903 -0.175829 12.326670
v 1.380978 -0.137769 12.326670
v 1.279311 -0.029383 12.326670
v 1.211379 0.100264 12.326670
v 1.187420 0.175829 12.328747
v 1.808128 0.175829 12.328746
v 1.497774 0.175829 12.328746
v -1.187420 0.175829 21.555208
v -1.912250 0.175829 21.555208
v -1.912250 0.175829 -21.540508
v -1.912250 0.175829 12.328747
v -1.912250 0.175829 -19.744350
v -1.812664 0.175829 -19.744349
v -1.790426 0.100263 -21.555210
v -1.790426 0.100264 -19.743776
v -1.722495 -0.029382 -21.555210
v -1.722495 -0.029382 -19.743776
v -1.620827 -0.137769 -21.555210
v -1.620827 -0.137769 -19.743776
v -1.500903 -0.175829 -21.555210
v -1.500903 -0.175829 -19.743776
v -1.380978 -0.137769 -21.555210
v -1.380978 -0.137769 -19.743776
v -1.279311 -0.029383 -21.555210
v -1.279311 -0.029383 -19.743776
v -1.211379 0.100263 -21.555210
v -1.211379 0.100264 -19.743776
v -1.187420 0.175829 -21.540508
v -1.187420 0.175829 -19.744349
v -1.812424 0.175829 -21.540508
v -1.790426 0.100264 12.326670
v -1.722495 -0.029382 12.326670
v -1.620827 -0.137769 12.326670
v -1.500903 -0.175829 12.326670
v -1.380978 -0.137769 12.326670
v -1.279311 -0.029383 12.326670
v -1.211379 0.100264 12.326670
v -1.187420 0.175829 12.328747
v -1.808128 0.175829 12.328746
v -1.497774 0.175829 12.328746
vt 0.988429 0.961164
vt 0.988429 0.982270
vt 0.942429 0.982270
vt 0.988429 0.943386
vt 0.942429 0.943386
vt 0.988429 0.913045
vt 0.942429 0.913045
vt 0.988429 0.884468
vt 0.942429 0.884468
vt 0.988429 0.861194
vt 0.942429 0.861194
vt 0.988429 0.838087
vt 0.942429 0.838087
vt 0.988429 0.809699
vt 0.942429 0.809699
vt 0.988429 0.778658
vt 0.942429 0.778658
vt 0.942429 0.760470
vt 0.116083 0.760470
vt 0.167952 0.778658
vt 0.209760 0.809699
vt 0.230472 0.838087
vt 0.238641 0.861194
vt 0.230472 0.884468
vt 0.209760 0.913045
vt 0.116083 0.982270
vt 0.116083 0.961164
vt 0.988429 0.760470
vt 0.988429 0.229376
vt 0.014396 0.760470
vt 0.014396 0.982270
vt 0.942429 0.961164
vt 0.167952 0.943386
vt 0.116083 0.862336
vt 0.988429 0.035252
vt 0.942429 0.035252
vt 0.942429 0.012925
vt 0.988429 0.053090
vt 0.988429 0.083405
vt 0.942429 0.053090
vt 0.988429 0.111554
vt 0.942429 0.083405
vt 0.988429 0.134346
vt 0.942429 0.111554
vt 0.988429 0.156907
vt 0.942429 0.134346
vt 0.988429 0.184437
vt 0.942429 0.156907
vt 0.988429 0.214058
vt 0.942429 0.184437
vt 0.942429 0.229376
vt 0.116083 0.229376
vt 0.942429 0.214058
vt 0.167952 0.214058
vt 0.209760 0.184437
vt 0.230472 0.156907
vt 0.238641 0.134346
vt 0.230472 0.111554
vt 0.209760 0.083405
vt 0.116083 0.012925
vt 0.116083 0.035252
vt 0.014396 0.229376
vt 0.014396 0.012925
vt 0.167952 0.053090
vt 0.116083 0.134919
vt 0.988429 0.012925
vn 0.000000 -1.000000 0.000000
vn 0.885768 -0.464129 0.000000
vn 0.729353 -0.684137 0.000000
vn 0.302499 -0.953150 0.000000
vn -0.302499 -0.953150 0.000000
vn -0.729352 -0.684139 0.000000
vn -0.885770 -0.464125 0.000000
vn -0.953233 -0.302236 0.000000
vn -0.953233 -0.302235 0.000000
vn -0.885771 -0.464123 0.000000
vn 0.729355 -0.684136 0.000000
vn 0.885768 -0.464128 0.000000
vn 0.000000 1.000000 0.000000
vn 0.960153 -0.279476 -0.000128
vn 0.959324 -0.282308 0.000136
vn 0.000000 0.027464 -0.999623
vn 0.006243 -0.003274 0.999975
vn 0.004966 -0.004668 0.999977
vn 0.001849 -0.005887 0.999981
vn -0.001871 -0.005920 0.999981
vn -0.005042 -0.004739 0.999976
vn -0.006366 -0.003337 0.999974
vn 0.000005 -0.027476 0.999622
vn -0.885768 -0.464129 0.000000
vn -0.729353 -0.684137 0.000000
vn 0.729352 -0.684139 0.000000
vn 0.885770 -0.464125 0.000000
vn 0.953234 -0.302234 0.000000
vn 0.953233 -0.302235 0.000000
vn 0.885771 -0.464123 0.000000
vn -0.729355 -0.684136 0.000000
vn -0.885768 -0.464128 0.000000
vn -0.960153 -0.279476 -0.000128
vn -0.973643 -0.228079 0.000000
vn -0.006243 -0.003274 0.999975
vn -0.004966 -0.004668 0.999977
vn -0.001849 -0.005887 0.999981
vn 0.001871 -0.005920 0.999981
vn 0.005042 -0.004739 0.999976
vn 0.006366 -0.003337 0.999974
vn -0.000005 -0.027476 0.999622
vn 0.885769 -0.464127 0.000000
vn 0.729355 -0.684135 0.000000
vn -0.953234 -0.302234 0.000000
vn -0.885770 -0.464124 0.000000
vn -0.729351 -0.684139 0.000000
vn 0.302498 -0.953150 0.000000
vn 0.885769 -0.464126 0.000000
vn 0.959325 -0.282304 0.000000
vn 0.973643 -0.228079 0.000000
vn -0.885769 -0.464127 0.000000
vn -0.729355 -0.684135 0.000000
vn 0.953234 -0.302235 0.000000
vn 0.953233 -0.302236 0.000000
vn 0.885770 -0.464124 0.000000
vn 0.729351 -0.684139 0.000000
vn -0.302498 -0.953150 0.000000
vn -0.885769 -0.464126 0.000000
vn -0.959325 -0.282303 0.000000
vn -0.959324 -0.282308 0.000136
usemtl Lane
s off
f 23/1/1 3/2/1 5/3/1
f 7/4/2 8/5/2 9/6/2
f 9/6/3 10/7/3 11/8/3
f 11/8/4 12/9/4 13/10/4
f 13/10/5 14/11/5 15/12/5
f 15/12/6 16/13/6 17/14/6
f 17/14/7 18/15/7 19/16/7
f 19/16/8 20/17/8 22/18/8
f 22/18/9 20/17/9 31/19/9
f 20/17/10 18/15/10 30/20/10
f 18/15/6 16/13/6 29/21/6
f 16/13/5 14/11/5 28/22/5
f 14/11/4 12/9/4 27/23/4
f 12/9/11 10/7/11 26/24/11
f 10/7/12 8/5/12 25/25/12
f 4/26/1 32/27/1 5/3/1
f 21/28/13 54/29/13 22/18/13
f 31/19/13 1/30/13 2/31/13
f 23/1/14 6/32/14 7/4/14
f 8/5/15 6/32/15 32/27/15
f 32/27/16 24/33/16 33/34/16
f 24/33/17 33/34/17 25/25/17
f 25/25/18 33/34/18 26/24/18
f 26/24/19 33/34/19 27/23/19
f 27/23/20 33/34/20 28/22/20
f 28/22/21 33/34/21 29/21/21
f 29/21/22 33/34/22 30/20/22
f 31/19/23 30/20/23 33/34/23
f 56/35/1 39/36/1 38/37/1
f 40/38/24 42/39/24 41/40/24
f 42/39/25 44/41/25 43/42/25
f 44/41/5 46/43/5 45/44/5
f 46/43/4 48/45/4 47/46/4
f 48/45/26 50/47/26 49/48/26
f 50/47/27 52/49/27 51/50/27
f 52/49/28 54/29/28 55/51/28
f 55/51/29 64/52/29 53/53/29
f 53/53/30 63/54/30 51/50/30
f 51/50/26 62/55/26 49/48/26
f 49/48/4 61/56/4 47/46/4
f 47/46/5 60/57/5 45/44/5
f 45/44/31 59/58/31 43/42/31
f 43/42/32 58/59/32 41/40/32
f 37/60/1 38/37/1 65/61/1
f 34/62/13 37/60/13 35/63/13
f 56/35/33 40/38/33 39/36/33
f 41/40/34 57/64/34 65/61/34
f 65/61/16 66/65/16 57/64/16
f 57/64/35 58/59/35 66/65/35
f 58/59/36 59/58/36 66/65/36
f 59/58/37 60/57/37 66/65/37
f 60/57/38 61/56/38 66/65/38
f 61/56/39 62/55/39 66/65/39
f 62/55/40 63/54/40 66/65/40
f 64/52/41 66/65/41 63/54/41
f 31/19/13 64/52/13 1/30/13
f 6/32/1 23/1/1 5/3/1
f 8/5/42 10/7/42 9/6/42
f 10/7/43 12/9/43 11/8/43
f 12/9/4 14/11/4 13/10/4
f 14/11/5 16/13/5 15/12/5
f 16/13/6 18/15/6 17/14/6
f 18/15/10 20/17/10 19/16/10
f 21/28/44 19/16/44 22/18/44
f 20/17/8 30/20/8 31/19/8
f 18/15/45 29/21/45 30/20/45
f 16/13/46 28/22/46 29/21/46
f 14/11/5 27/23/5 28/22/5
f 12/9/47 26/24/47 27/23/47
f 10/7/11 25/25/11 26/24/11
f 8/5/48 24/33/48 25/25/48
f 32/27/1 6/32/1 5/3/1
f 54/29/13 55/51/13 22/18/13
f 55/51/13 64/52/13 22/18/13
f 64/52/13 31/19/13 22/18/13
f 33/34/13 31/19/13 2/31/13
f 32/27/13 33/34/13 2/31/13
f 4/26/13 32/27/13 2/31/13
f 6/32/49 8/5/49 7/4/49
f 24/33/50 8/5/50 32/27/50
f 36/66/1 56/35/1 38/37/1
f 42/39/51 43/42/51 41/40/51
f 44/41/52 45/44/52 43/42/52
f 46/43/5 47/46/5 45/44/5
f 48/45/4 49/48/4 47/46/4
f 50/47/26 51/50/26 49/48/26
f 52/49/30 53/53/30 51/50/30
f 53/53/53 52/49/53 55/51/53
f 64/52/54 63/54/54 53/53/54
f 63/54/55 62/55/55 51/50/55
f 62/55/56 61/56/56 49/48/56
f 61/56/4 60/57/4 47/46/4
f 60/57/57 59/58/57 45/44/57
f 59/58/31 58/59/31 43/42/31
f 58/59/58 57/64/58 41/40/58
f 38/37/1 39/36/1 65/61/1
f 64/52/13 66/65/13 34/62/13
f 66/65/13 65/61/13 34/62/13
f 65/61/13 37/60/13 34/62/13
f 40/38/59 41/40/59 39/36/59
f 39/36/60 41/40/60 65/61/60
f 64/52/13 34/62/13 1/30/13
