# Blender v2.69 (sub 0) OBJ File: 'bowling.blend'
# www.blender.org
mtllib walls.mtl
o Cube
v 17.079678 9.005185 -21.385378
v 17.079678 9.005185 12.773976
v -17.079678 9.005185 12.773976
v -17.079678 9.005185 -21.385378
v 17.079678 -0.717732 -21.385378
v 17.079678 -0.717732 12.773976
v -17.079678 -0.717732 12.773976
v -17.079678 -0.717732 -21.385378
v -13.386044 9.005185 12.773976
v -9.561460 9.005185 12.773976
v -5.736876 9.005185 12.773976
v -1.912292 9.005185 12.773976
v 1.912292 9.005185 12.773976
v 5.736876 9.005185 12.773976
v 9.561460 9.005185 12.773976
v 13.386044 9.005185 12.773976
v -13.386044 -0.717732 -21.385378
v -9.561460 -0.717732 -21.385378
v -5.736876 -0.717732 -21.385378
v -1.912292 -0.717732 -21.385378
v 1.912292 -0.717732 -21.385378
v 5.736876 -0.717732 -21.385378
v 9.561460 -0.717732 -21.385378
v 13.386044 -0.717732 -21.385378
v 13.386044 9.005185 -21.385378
v 9.561460 9.005185 -21.385378
v 5.736876 9.005185 -21.385378
v 1.912292 9.005185 -21.385378
v -1.912292 9.005185 -21.385378
v -5.736876 9.005185 -21.385378
v -9.561460 9.005185 -21.385378
v -13.386044 9.005185 -21.385378
v 17.079678 -5.983126 -21.385378
v 17.079678 -5.983126 12.773976
v -17.079678 -5.983126 12.773976
v -17.079678 -5.983126 -21.385378
v 0.000000 -5.983126 -21.385378
v 0.000000 -5.983126 12.773977
v -17.079678 9.005185 30.319901
v 17.079678 9.005185 30.319901
v 17.079678 -0.717732 30.319901
v -17.079678 -0.717732 30.319901
v -13.386044 9.005185 30.319901
v -9.561460 9.005185 30.319901
v -5.736876 9.005185 30.319901
v -1.912292 9.005185 30.319901
v 1.912292 9.005185 30.319901
v 5.736876 9.005185 30.319901
v 9.561460 9.005185 30.319901
v 13.386044 9.005185 30.319901
v 17.079678 -5.983126 30.319901
v -17.079678 -5.983126 30.319901
v 0.000000 -5.983126 30.319901
vt 0.974032 0.782386
vt 0.299063 0.782386
vt 0.974032 0.974505
vt 0.299063 0.974505
vt 0.015560 0.029340
vt 0.267907 0.029340
vt 0.015560 0.682033
vt 0.267907 0.682033
vt 0.267907 0.967912
vt 0.178934 0.096119
vt 0.178934 0.169095
vt 0.167686 0.096119
vt 0.083461 0.169095
vt 0.083461 0.096119
vt 0.094709 0.169095
vt 0.167686 0.169095
vt 0.131197 0.096119
vt 0.094709 0.096119
vt 0.131197 0.169095
vt 0.134769 0.088944
vt 0.156599 0.142985
vt 0.135563 0.142985
vt 0.114526 0.142985
vt 0.093490 0.142985
vt 0.156599 0.142986
vt 0.015560 0.967912
vn -1.000000 0.000000 0.000000
vn 1.000000 0.000000 0.000000
vn -0.000001 0.000000 1.000000
vn 0.000000 -1.000000 0.000000
vn 0.000001 0.000000 1.000000
vn 0.000000 0.000000 1.000000
vn 0.000000 1.000000 0.000000
vn 0.000000 0.000000 -1.000000
usemtl None
s off
f 5/1/1 6/2/1 1/3/1
f 7/2/2 8/1/2 3/4/2
f 24/5/3 5/6/3 25/7/3
f 32/8/4 9/9/4 4/7/4
f 8/5/5 17/6/5 4/7/5
f 17/5/6 18/6/6 32/7/6
f 18/5/6 19/6/6 31/7/6
f 19/5/6 20/6/6 30/7/6
f 20/5/6 21/6/6 29/7/6
f 21/5/6 22/6/6 28/7/6
f 22/5/6 23/6/6 27/7/6
f 23/5/6 24/6/6 26/7/6
f 1/8/4 2/9/4 25/7/4
f 25/8/4 16/9/4 26/7/4
f 26/8/4 15/9/4 27/7/4
f 27/8/4 14/9/4 28/7/4
f 28/8/4 13/9/4 29/7/4
f 29/8/4 12/9/4 30/7/4
f 30/8/4 11/9/4 31/7/4
f 31/8/4 10/9/4 32/7/4
f 8/10/2 7/11/2 36/12/2
f 6/13/1 5/14/1 34/15/1
f 36/12/7 35/16/7 37/17/7
f 34/15/7 33/18/7 38/19/7
f 5/20/5 24/20/5 33/20/5
f 38/21/7 35/21/7 53/21/7
f 34/21/7 38/21/7 51/21/7
f 6/21/1 34/21/1 41/21/1
f 35/21/2 7/21/2 52/21/2
f 15/22/4 16/22/4 49/23/4
f 14/22/4 15/22/4 48/23/4
f 13/22/4 14/22/4 47/23/4
f 12/22/4 13/22/4 46/23/4
f 11/22/4 12/22/4 45/23/4
f 10/22/4 11/22/4 44/23/4
f 9/22/4 10/22/4 43/23/4
f 3/24/4 9/22/4 39/24/4
f 16/22/4 2/21/4 50/23/4
f 7/24/2 3/24/2 42/24/2
f 2/21/1 6/21/1 40/21/1
f 40/25/8 41/21/8 50/21/8
f 6/2/1 2/4/1 1/3/1
f 8/1/2 4/3/2 3/4/2
f 5/6/6 1/8/6 25/7/6
f 9/9/4 3/26/4 4/7/4
f 17/6/6 32/8/6 4/7/6
f 18/6/6 31/8/6 32/7/6
f 19/6/6 30/8/6 31/7/6
f 20/6/6 29/8/6 30/7/6
f 21/6/6 28/8/6 29/7/6
f 22/6/6 27/8/6 28/7/6
f 23/6/6 26/8/6 27/7/6
f 24/6/6 25/8/6 26/7/6
f 2/9/4 16/26/4 25/7/4
f 16/9/4 15/26/4 26/7/4
f 15/9/4 14/26/4 27/7/4
f 14/9/4 13/26/4 28/7/4
f 13/9/4 12/26/4 29/7/4
f 12/9/4 11/26/4 30/7/4
f 11/9/4 10/26/4 31/7/4
f 10/9/4 9/26/4 32/7/4
f 7/11/2 35/16/2 36/12/2
f 5/14/1 33/18/1 34/15/1
f 35/16/7 38/19/7 37/17/7
f 33/18/7 37/17/7 38/19/7
f 36/20/3 17/20/3 8/20/3
f 24/20/6 23/20/6 33/20/6
f 33/20/6 23/20/6 37/20/6
f 23/20/6 22/20/6 37/20/6
f 22/20/6 21/20/6 37/20/6
f 21/20/6 20/20/6 37/20/6
f 20/20/6 19/20/6 37/20/6
f 37/20/6 19/20/6 36/20/6
f 19/20/6 18/20/6 36/20/6
f 18/20/6 17/20/6 36/20/6
f 35/21/7 52/21/7 53/21/7
f 38/21/7 53/21/7 51/21/7
f 34/21/1 51/21/1 41/21/1
f 7/21/2 42/21/2 52/21/2
f 16/22/4 50/23/4 49/23/4
f 15/22/4 49/23/4 48/23/4
f 14/22/4 48/23/4 47/23/4
f 13/22/4 47/23/4 46/23/4
f 12/22/4 46/23/4 45/23/4
f 11/22/4 45/23/4 44/23/4
f 10/22/4 44/23/4 43/23/4
f 9/22/4 43/23/4 39/24/4
f 2/21/4 40/21/4 50/23/4
f 3/24/2 39/24/2 42/24/2
f 6/21/1 41/21/1 40/21/1
f 43/21/8 42/21/8 39/21/8
f 41/21/8 51/21/8 53/21/8
f 50/21/8 41/21/8 53/21/8
f 50/21/8 53/21/8 52/21/8
f 44/21/8 42/21/8 43/21/8
f 45/21/8 42/21/8 44/21/8
f 46/21/8 42/21/8 45/21/8
f 47/21/8 42/21/8 46/21/8
f 48/21/8 42/21/8 47/21/8
f 49/21/8 50/21/8 52/21/8
f 48/21/8 49/21/8 52/21/8
f 42/21/8 48/21/8 52/21/8
