# Blender v2.69 (sub 0) OBJ File: 'arkanoid.blend'
# www.blender.org
mtllib arkanoid_ball.mtl
o Icosphere
v 0.000000 -0.050000 0.000000
v 0.036180 -0.022361 0.026286
v -0.013819 -0.022361 0.042532
v -0.044721 -0.022361 0.000000
v -0.013819 -0.022361 -0.042532
v 0.036180 -0.022361 -0.026286
v 0.013819 0.022361 0.042532
v -0.036180 0.022361 0.026286
v -0.036180 0.022361 -0.026286
v 0.013819 0.022361 -0.042532
v 0.044721 0.022361 0.000000
v 0.000000 0.050000 0.000000
v -0.011641 -0.032876 0.035828
v -0.008123 -0.042533 0.025000
v -0.003880 -0.048397 0.011943
v 0.010159 -0.048397 0.007381
v 0.021266 -0.042533 0.015451
v 0.030477 -0.032876 0.022143
v 0.026597 -0.025115 0.034086
v 0.013143 -0.026287 0.040451
v -0.001482 -0.025115 0.043209
v 0.040636 -0.025115 -0.014762
v 0.042532 -0.026287 0.000000
v 0.040636 -0.025115 0.014762
v 0.010159 -0.048397 -0.007381
v 0.021266 -0.042533 -0.015451
v 0.030477 -0.032876 -0.022143
v -0.037672 -0.032876 0.000000
v -0.026286 -0.042533 0.000000
v -0.012557 -0.048397 0.000000
v -0.024199 -0.025115 0.035828
v -0.034409 -0.026287 0.025000
v -0.041553 -0.025115 0.011943
v -0.011641 -0.032876 -0.035828
v -0.008123 -0.042533 -0.025000
v -0.003880 -0.048397 -0.011943
v -0.041553 -0.025115 -0.011943
v -0.034409 -0.026287 -0.025000
v -0.024199 -0.025115 -0.035828
v -0.001482 -0.025115 -0.043209
v 0.013143 -0.026287 -0.040451
v 0.026597 -0.025115 -0.034086
v 0.047831 0.012557 0.007381
v 0.047553 -0.000000 0.015451
v 0.043035 -0.012558 0.022143
v 0.043035 -0.012558 -0.022143
v 0.047553 0.000000 -0.015451
v 0.047831 0.012557 -0.007381
v 0.007761 0.012558 0.047771
v 0.000000 -0.000000 0.050000
v -0.007761 -0.012558 0.047771
v 0.034358 -0.012558 0.034086
v 0.029389 0.000000 0.040451
v 0.021800 0.012558 0.043209
v -0.043035 0.012558 0.022143
v -0.047553 -0.000000 0.015451
v -0.047831 -0.012557 0.007381
v -0.021800 -0.012558 0.043209
v -0.029389 0.000000 0.040451
v -0.034358 0.012558 0.034086
v -0.034358 0.012558 -0.034086
v -0.029389 -0.000000 -0.040451
v -0.021800 -0.012558 -0.043209
v -0.047831 -0.012557 -0.007381
v -0.047553 0.000000 -0.015451
v -0.043035 0.012558 -0.022143
v 0.021800 0.012558 -0.043209
v 0.029389 -0.000000 -0.040451
v 0.034358 -0.012558 -0.034086
v -0.007761 -0.012558 -0.047771
v 0.000000 0.000000 -0.050000
v 0.007761 0.012558 -0.047771
v 0.041553 0.025115 0.011943
v 0.034409 0.026287 0.025000
v 0.024199 0.025115 0.035828
v 0.001482 0.025115 0.043209
v -0.013143 0.026287 0.040451
v -0.026597 0.025115 0.034086
v -0.040636 0.025115 0.014762
v -0.042532 0.026287 0.000000
v -0.040636 0.025115 -0.014762
v -0.026597 0.025115 -0.034086
v -0.013143 0.026287 -0.040451
v 0.001482 0.025115 -0.043209
v 0.024199 0.025115 -0.035828
v 0.034409 0.026287 -0.025000
v 0.041553 0.025115 -0.011943
v 0.003880 0.048397 0.011943
v 0.008123 0.042533 0.025000
v 0.011641 0.032876 0.035828
v 0.037672 0.032876 0.000000
v 0.026286 0.042533 0.000000
v 0.012557 0.048397 0.000000
v -0.010159 0.048397 0.007381
v -0.021266 0.042533 0.015451
v -0.030477 0.032876 0.022143
v -0.010159 0.048397 -0.007381
v -0.021266 0.042533 -0.015451
v -0.030477 0.032876 -0.022143
v 0.003880 0.048397 -0.011943
v 0.008123 0.042533 -0.025000
v 0.011641 0.032876 -0.035828
v 0.002640 -0.036181 0.034409
v 0.006910 -0.044721 0.021266
v 0.018090 -0.036181 0.029389
v 0.033541 -0.036181 -0.008123
v 0.033541 -0.036181 0.008123
v 0.022361 -0.044721 0.000000
v -0.031910 -0.036180 0.013143
v -0.018090 -0.044721 0.013143
v -0.022361 -0.036181 0.026286
v -0.022361 -0.036181 -0.026286
v -0.018090 -0.044721 -0.013143
v -0.031910 -0.036180 -0.013143
v 0.018090 -0.036181 -0.029389
v 0.006910 -0.044721 -0.021266
v 0.002639 -0.036181 -0.034409
v 0.050000 0.000000 0.000000
v 0.047361 -0.013820 0.008123
v 0.047361 -0.013820 -0.008123
v 0.015451 0.000000 0.047553
v 0.006910 -0.013820 0.047553
v 0.022361 -0.013820 0.042532
v -0.040451 0.000000 0.029389
v -0.043090 -0.013820 0.021266
v -0.033541 -0.013820 0.034410
v -0.040451 -0.000000 -0.029389
v -0.033541 -0.013820 -0.034410
v -0.043090 -0.013820 -0.021266
v 0.015451 -0.000000 -0.047553
v 0.022361 -0.013820 -0.042532
v 0.006910 -0.013820 -0.047553
v 0.033541 0.013820 0.034409
v 0.040451 -0.000000 0.029389
v 0.043090 0.013820 0.021266
v -0.022361 0.013820 0.042532
v -0.015451 -0.000000 0.047553
v -0.006910 0.013820 0.047553
v -0.047361 0.013820 -0.008123
v -0.050000 0.000000 0.000000
v -0.047361 0.013820 0.008123
v -0.006910 0.013820 -0.047553
v -0.015451 -0.000000 -0.047553
v -0.022361 0.013820 -0.042532
v 0.043090 0.013820 -0.021266
v 0.040451 0.000000 -0.029389
v 0.033541 0.013820 -0.034409
v 0.018090 0.044721 0.013143
v 0.022360 0.036181 0.026286
v 0.031910 0.036181 0.013143
v -0.006910 0.044721 0.021266
v -0.018090 0.036181 0.029389
v -0.002639 0.036181 0.034409
v -0.022360 0.044721 0.000000
v -0.033541 0.036181 -0.008123
v -0.033541 0.036181 0.008123
v -0.006910 0.044721 -0.021266
v -0.002639 0.036181 -0.034409
v -0.018090 0.036181 -0.029389
v 0.018090 0.044721 -0.013143
v 0.031910 0.036181 -0.013143
v 0.022360 0.036181 -0.026286
vt 0.679312 0.388244
vt 0.635867 0.407980
vt 0.651024 0.355639
vt 0.111756 0.179316
vt 0.092018 0.135869
vt 0.144361 0.151027
vt 0.698013 0.351632
vt 0.722310 0.392051
vt 0.688787 0.435012
vt 0.148368 0.198017
vt 0.596567 0.225443
vt 0.555015 0.248907
vt 0.564371 0.190222
vt 0.749978 0.249899
vt 0.718357 0.244858
vt 0.745001 0.218268
vt 0.859714 0.359858
vt 0.830673 0.330758
vt 0.876622 0.320140
vt 0.274556 0.096568
vt 0.309777 0.064372
vt 0.311536 0.118837
vt 0.107949 0.222315
vt 0.618835 0.188463
vt 0.778523 0.235390
vt 0.907122 0.365298
vt 0.268085 0.137168
vt 0.140147 0.359722
vt 0.169246 0.330679
vt 0.179865 0.376628
vt 0.725833 0.096438
vt 0.690678 0.064171
vt 0.749381 0.054934
vt 0.888465 0.179510
vt 0.855917 0.151157
vt 0.908289 0.136104
vt 0.403562 0.225834
vt 0.445066 0.249381
vt 0.393811 0.267884
vt 0.250103 0.249981
vt 0.281733 0.245004
vt 0.264611 0.278526
vt 0.606233 0.267513
vt 0.624923 0.313460
vt 0.568670 0.306091
vt 0.597720 0.363246
vt 0.500099 0.289183
vt 0.524368 0.364568
vt 0.024904 0.134954
vt 0.064987 0.188792
vt 0.000312 0.210128
vt 0.570963 0.428605
vt 0.071393 0.070964
vt 0.232486 0.106235
vt 0.251091 0.055016
vt 0.186540 0.124925
vt 0.193908 0.068672
vt 0.136753 0.097723
vt 0.210815 0.000100
vt 0.135430 0.024370
vt 0.634950 0.475093
vt 0.710121 0.499686
vt 0.735412 0.278414
vt 0.717527 0.313429
vt 0.697128 0.276760
vt 0.673515 0.315313
vt 0.679530 0.238669
vt 0.652066 0.273112
vt 0.637166 0.231915
vt 0.819963 0.376686
vt 0.771782 0.388475
vt 0.788562 0.342833
vt 0.741798 0.350192
vt 0.800370 0.300393
vt 0.759193 0.308463
vt 0.772596 0.272563
vt 0.289908 0.000259
vt 0.747391 0.439696
vt 0.365131 0.024700
vt 0.789315 0.499901
vt 0.810725 0.429731
vt 0.864616 0.475377
vt 0.865059 0.407276
vt 0.221587 0.235416
vt 0.255143 0.218360
vt 0.186573 0.217531
vt 0.223240 0.197131
vt 0.184687 0.173519
vt 0.261332 0.179533
vt 0.226888 0.152069
vt 0.092729 0.365068
vt 0.123318 0.319970
vt 0.024627 0.364627
vt 0.070272 0.310734
vt 0.500259 0.210089
vt 0.524700 0.134866
vt 0.111527 0.271789
vt 0.000100 0.289324
vt 0.060304 0.247397
vt 0.732222 0.137050
vt 0.688808 0.118632
vt 0.738890 0.179428
vt 0.697646 0.163952
vt 0.708100 0.207936
vt 0.650885 0.150605
vt 0.664137 0.197393
vt 0.892185 0.222516
vt 0.851815 0.198138
vt 0.888509 0.271983
vt 0.850287 0.241921
vt 0.842834 0.288671
vt 0.813573 0.217576
vt 0.808523 0.259232
vt 0.381368 0.188809
vt 0.435829 0.190678
vt 0.349395 0.150887
vt 0.405172 0.140512
vt 0.359881 0.095130
vt 0.475611 0.135403
vt 0.429234 0.071206
vt 0.928605 0.428887
vt 0.975224 0.364992
vt 0.157169 0.288568
vt 0.149810 0.241802
vt 0.199610 0.300375
vt 0.191539 0.259197
vt 0.227439 0.272600
vt 0.640512 0.094828
vt 0.595130 0.140118
vt 0.635404 0.024388
vt 0.571207 0.070764
vt 0.071121 0.428614
vt 0.134709 0.407129
vt 0.135017 0.475230
vt 0.815546 0.173568
vt 0.776946 0.197103
vt 0.813791 0.124972
vt 0.773389 0.152034
vt 0.767883 0.106190
vt 0.499899 0.210675
vt 0.929687 0.311009
vt 0.499899 0.289767
vt 0.999900 0.289739
vt 0.939780 0.247694
vt 0.999845 0.210544
vt 0.935214 0.189079
vt 0.292065 0.208103
vt 0.302607 0.164139
vt 0.320573 0.238892
vt 0.336048 0.197648
vt 0.362950 0.232224
vt 0.277487 0.392187
vt 0.301864 0.351818
vt 0.320492 0.388466
vt 0.228022 0.388513
vt 0.258083 0.350290
vt 0.211333 0.342839
vt 0.282426 0.313576
vt 0.240771 0.308527
vt 0.310924 0.435214
vt 0.289461 0.499844
vt 0.252312 0.439782
vt 0.710675 0.000100
vt 0.789767 0.000100
vt 0.210269 0.499902
vt 0.188998 0.429691
vt 0.363897 0.408289
vt 0.428758 0.429043
vt 0.364679 0.475402
vt 0.863631 0.097869
vt 0.929043 0.071242
vt 0.865101 0.024520
vt 0.806535 0.068704
vt 0.348844 0.355918
vt 0.375029 0.313792
vt 0.402131 0.363632
vt 0.431296 0.306536
vt 0.475479 0.365101
vt 0.975403 0.135322
vt 0.326434 0.315549
vt 0.302899 0.276949
vt 0.347968 0.273390
vn 0.000000 -1.000000 0.000000
vn 0.210944 -0.965392 0.153264
vn -0.080569 -0.965392 0.247963
vn 0.723594 -0.447218 0.525712
vn 0.604205 -0.664968 0.438978
vn 0.815180 -0.503800 0.285714
vn -0.260750 -0.965392 0.000000
vn -0.080569 -0.965392 -0.247963
vn 0.210944 -0.965392 -0.153264
vn 0.864986 -0.243049 0.438978
vn -0.276376 -0.447218 0.850642
vn -0.019837 -0.503800 0.863552
vn -0.150212 -0.243049 0.958281
vn -0.894406 -0.447188 0.000000
vn -0.827448 -0.503800 0.247963
vn -0.957823 -0.243049 0.153264
vn -0.276376 -0.447218 -0.850642
vn -0.491531 -0.503800 -0.710288
vn -0.441725 -0.243049 -0.863582
vn 0.723594 -0.447218 -0.525712
vn 0.523637 -0.503800 -0.686972
vn 0.684805 -0.243049 -0.686972
vn 0.684805 -0.243049 0.686972
vn -0.441725 -0.243049 0.863582
vn -0.957823 -0.243049 -0.153264
vn -0.150212 -0.243049 -0.958281
vn 0.864986 -0.243049 -0.438978
vn 0.276376 0.447218 0.850642
vn 0.491531 0.503800 0.710288
vn 0.230781 0.664968 0.710288
vn -0.723594 0.447218 0.525712
vn -0.523637 0.503800 0.686972
vn -0.604205 0.664968 0.438978
vn -0.723594 0.447218 -0.525712
vn -0.815180 0.503800 -0.285714
vn -0.604205 0.664968 -0.438978
vn 0.276376 0.447218 -0.850642
vn 0.019837 0.503800 -0.863552
vn 0.230781 0.664968 -0.710288
vn 0.894406 0.447188 0.000000
vn 0.827448 0.503800 -0.247963
vn 0.746849 0.664968 0.000000
vn -0.230781 -0.664968 0.710288
vn -0.162450 -0.850642 0.499985
vn 0.059206 -0.727531 0.683493
vn 0.140629 -0.890408 0.432844
vn 0.262856 -0.525712 0.808985
vn 0.353832 -0.727531 0.587756
vn 0.523637 -0.503800 0.686972
vn 0.425306 -0.850642 0.309000
vn 0.815180 -0.503800 -0.285714
vn 0.604205 -0.664968 -0.438978
vn 0.850642 -0.525712 0.000000
vn 0.668325 -0.727531 -0.154881
vn 0.668325 -0.727531 0.154881
vn 0.425306 -0.850642 -0.309000
vn 0.455123 -0.890408 0.000000
vn -0.746849 -0.664968 0.000000
vn -0.525712 -0.850642 0.000000
vn -0.631733 -0.727531 0.267495
vn -0.368206 -0.890408 0.267495
vn -0.688162 -0.525712 0.499985
vn -0.449629 -0.727531 0.518143
vn -0.491531 -0.503800 0.710288
vn -0.230781 -0.664968 -0.710288
vn -0.162450 -0.850642 -0.499985
vn -0.449629 -0.727531 -0.518143
vn -0.368206 -0.890408 -0.267495
vn -0.688162 -0.525712 -0.499985
vn -0.631733 -0.727531 -0.267495
vn -0.827448 -0.503800 -0.247963
vn 0.353832 -0.727531 -0.587756
vn 0.140629 -0.890408 -0.432844
vn 0.262856 -0.525712 -0.808985
vn 0.059206 -0.727531 -0.683493
vn -0.019837 -0.503800 -0.863552
vn 0.957823 0.243049 0.153264
vn 0.957823 0.243049 -0.153264
vn 0.951048 0.000000 0.309000
vn 0.999939 -0.008850 0.000000
vn 0.949614 -0.272408 0.154881
vn 0.951048 0.000000 -0.309000
vn 0.949614 -0.272408 -0.154881
vn 0.150212 0.243049 0.958281
vn 0.441725 0.243049 0.863582
vn 0.000000 0.000000 1.000000
vn 0.309000 -0.008850 0.951018
vn 0.146123 -0.272408 0.950987
vn 0.587756 0.000000 0.809015
vn 0.440748 -0.272408 0.855251
vn -0.864986 0.243049 0.438978
vn -0.684805 0.243049 0.686972
vn -0.951048 0.000000 0.309000
vn -0.808985 -0.008850 0.587756
vn -0.859310 -0.272408 0.432844
vn -0.587756 0.000000 0.809015
vn -0.677206 -0.272408 0.683493
vn -0.684805 0.243049 -0.686972
vn -0.864986 0.243049 -0.438978
vn -0.587756 0.000000 -0.809015
vn -0.808985 -0.008850 -0.587756
vn -0.677206 -0.272408 -0.683493
vn -0.951048 0.000000 -0.309000
vn -0.859310 -0.272408 -0.432844
vn 0.441725 0.243049 -0.863582
vn 0.150212 0.243049 -0.958281
vn 0.587756 0.000000 -0.809015
vn 0.309000 -0.008850 -0.951018
vn 0.440748 -0.272408 -0.855251
vn 0.000000 0.000000 -1.000000
vn 0.146123 -0.272408 -0.950987
vn 0.677206 0.272408 0.683493
vn 0.808985 0.008850 0.587756
vn 0.688162 0.525712 0.499985
vn 0.859310 0.272408 0.432844
vn 0.827448 0.503800 0.247963
vn -0.440748 0.272408 0.855251
vn -0.309000 0.008850 0.951018
vn -0.262856 0.525712 0.808985
vn -0.146123 0.272408 0.950987
vn 0.019837 0.503800 0.863552
vn -0.949614 0.272408 -0.154881
vn -0.999939 0.008850 0.000000
vn -0.850642 0.525712 0.000000
vn -0.949614 0.272408 0.154881
vn -0.815180 0.503800 0.285714
vn -0.146123 0.272408 -0.950987
vn -0.309000 0.008850 -0.951018
vn -0.262856 0.525712 -0.808985
vn -0.440748 0.272408 -0.855251
vn -0.523637 0.503800 -0.686972
vn 0.859310 0.272408 -0.432844
vn 0.808985 0.008850 -0.587756
vn 0.688162 0.525712 -0.499985
vn 0.677206 0.272408 -0.683493
vn 0.491531 0.503800 -0.710288
vn 0.080569 0.965392 0.247963
vn 0.260750 0.965392 0.000000
vn 0.000000 1.000000 0.000000
vn 0.162450 0.850642 0.499985
vn 0.368206 0.890408 0.267495
vn 0.449629 0.727531 0.518143
vn 0.525712 0.850642 0.000000
vn 0.631733 0.727531 0.267495
vn -0.210944 0.965392 0.153264
vn -0.425306 0.850642 0.309000
vn -0.140629 0.890408 0.432844
vn -0.353832 0.727531 0.587725
vn -0.059206 0.727531 0.683493
vn -0.210944 0.965392 -0.153264
vn -0.425306 0.850642 -0.309000
vn -0.455123 0.890408 0.000000
vn -0.668325 0.727531 -0.154881
vn -0.668325 0.727531 0.154881
vn 0.080569 0.965392 -0.247963
vn 0.162450 0.850642 -0.499985
vn -0.140629 0.890408 -0.432844
vn -0.059206 0.727531 -0.683493
vn -0.353832 0.727531 -0.587725
vn 0.368206 0.890408 -0.267495
vn 0.631733 0.727531 -0.267495
vn 0.449629 0.727531 -0.518143
usemtl None
s 1
f 1/1/1 16/2/2 15/3/3
f 2/4/4 18/5/5 24/6/6
f 1/1/1 15/3/3 30/7/7
f 1/1/1 30/7/7 36/8/8
f 1/1/1 36/8/8 25/9/9
f 2/4/4 24/6/6 45/10/10
f 3/11/11 21/12/12 51/13/13
f 4/14/14 33/15/15 57/16/16
f 5/17/17 39/18/18 63/19/19
f 6/20/20 42/21/21 69/22/22
f 2/4/4 45/10/10 52/23/23
f 3/11/11 51/13/13 58/24/24
f 4/14/14 57/16/16 64/25/25
f 5/17/17 63/19/19 70/26/26
f 6/20/20 69/22/22 46/27/27
f 7/28/28 75/29/29 90/30/30
f 8/31/31 78/32/32 96/33/33
f 9/34/34 81/35/35 99/36/36
f 10/37/37 84/38/38 102/39/39
f 11/40/40 87/41/41 91/42/42
f 13/43/43 21/12/12 3/11/11
f 14/44/44 103/45/45 13/43/43
f 15/3/3 104/46/46 14/44/44
f 13/43/43 103/45/45 21/12/12
f 103/45/45 20/47/47 21/12/12
f 14/44/44 104/46/46 103/45/45
f 104/46/46 105/48/48 103/45/45
f 103/45/45 105/48/48 20/47/47
f 105/49/48 19/50/49 20/51/47
f 15/3/3 16/2/2 104/46/46
f 16/2/2 17/52/50 104/46/46
f 104/46/46 17/52/50 105/48/48
f 17/53/50 18/5/5 105/49/48
f 105/49/48 18/5/5 19/50/49
f 18/5/5 2/4/4 19/50/49
f 22/54/51 27/55/52 6/20/20
f 23/56/53 106/57/54 22/54/51
f 24/6/6 107/58/55 23/56/53
f 22/54/51 106/57/54 27/55/52
f 106/57/54 26/59/56 27/55/52
f 23/56/53 107/58/55 106/57/54
f 107/58/55 108/60/57 106/57/54
f 106/57/54 108/60/57 26/59/56
f 108/61/57 25/9/9 26/62/56
f 24/6/6 18/5/5 107/58/55
f 18/5/5 17/53/50 107/58/55
f 107/58/55 17/53/50 108/60/57
f 17/52/50 16/2/2 108/61/57
f 108/61/57 16/2/2 25/9/9
f 16/2/2 1/1/1 25/9/9
f 28/63/58 33/15/15 4/14/14
f 29/64/59 109/65/60 28/63/58
f 30/7/7 110/66/61 29/64/59
f 28/63/58 109/65/60 33/15/15
f 109/65/60 32/67/62 33/15/15
f 29/64/59 110/66/61 109/65/60
f 110/66/61 111/68/63 109/65/60
f 109/65/60 111/68/63 32/67/62
f 111/68/63 31/69/64 32/67/62
f 30/7/7 15/3/3 110/66/61
f 15/3/3 14/44/44 110/66/61
f 110/66/61 14/44/44 111/68/63
f 14/44/44 13/43/43 111/68/63
f 111/68/63 13/43/43 31/69/64
f 13/43/43 3/11/11 31/69/64
f 34/70/65 39/18/18 5/17/17
f 35/71/66 112/72/67 34/70/65
f 36/8/8 113/73/68 35/71/66
f 34/70/65 112/72/67 39/18/18
f 112/72/67 38/74/69 39/18/18
f 35/71/66 113/73/68 112/72/67
f 113/73/68 114/75/70 112/72/67
f 112/72/67 114/75/70 38/74/69
f 114/75/70 37/76/71 38/74/69
f 36/8/8 30/7/7 113/73/68
f 30/7/7 29/64/59 113/73/68
f 113/73/68 29/64/59 114/75/70
f 29/64/59 28/63/58 114/75/70
f 114/75/70 28/63/58 37/76/71
f 28/63/58 4/14/14 37/76/71
f 27/55/52 42/21/21 6/20/20
f 26/59/56 115/77/72 27/55/52
f 25/9/9 116/78/73 26/62/56
f 27/55/52 115/77/72 42/21/21
f 115/77/72 41/79/74 42/21/21
f 26/62/56 116/78/73 115/80/72
f 116/78/73 117/81/75 115/80/72
f 115/80/72 117/81/75 41/82/74
f 117/81/75 40/83/76 41/82/74
f 25/9/9 36/8/8 116/78/73
f 36/8/8 35/71/66 116/78/73
f 116/78/73 35/71/66 117/81/75
f 35/71/66 34/70/65 117/81/75
f 117/81/75 34/70/65 40/83/76
f 34/70/65 5/17/17 40/83/76
f 43/84/77 48/85/78 11/40/40
f 44/86/79 118/87/80 43/84/77
f 45/10/10 119/88/81 44/86/79
f 43/84/77 118/87/80 48/85/78
f 118/87/80 47/89/82 48/85/78
f 44/86/79 119/88/81 118/87/80
f 119/88/81 120/90/83 118/87/80
f 118/87/80 120/90/83 47/89/82
f 120/90/83 46/27/27 47/89/82
f 45/10/10 24/6/6 119/88/81
f 24/6/6 23/56/53 119/88/81
f 119/88/81 23/56/53 120/90/83
f 23/56/53 22/54/51 120/90/83
f 120/90/83 22/54/51 46/27/27
f 22/54/51 6/20/20 46/27/27
f 49/91/84 54/92/85 7/28/28
f 50/93/86 121/94/87 49/91/84
f 51/13/13 122/95/88 50/96/86
f 49/91/84 121/94/87 54/92/85
f 121/94/87 53/97/89 54/92/85
f 50/93/86 122/98/88 121/94/87
f 122/98/88 123/99/90 121/94/87
f 121/94/87 123/99/90 53/97/89
f 123/99/90 52/23/23 53/97/89
f 51/13/13 21/12/12 122/95/88
f 21/12/12 20/47/47 122/95/88
f 122/98/88 20/51/47 123/99/90
f 20/51/47 19/50/49 123/99/90
f 123/99/90 19/50/49 52/23/23
f 19/50/49 2/4/4 52/23/23
f 55/100/91 60/101/92 8/31/31
f 56/102/93 124/103/94 55/100/91
f 57/16/16 125/104/95 56/102/93
f 55/100/91 124/103/94 60/101/92
f 124/103/94 59/105/96 60/101/92
f 56/102/93 125/104/95 124/103/94
f 125/104/95 126/106/97 124/103/94
f 124/103/94 126/106/97 59/105/96
f 126/106/97 58/24/24 59/105/96
f 57/16/16 33/15/15 125/104/95
f 33/15/15 32/67/62 125/104/95
f 125/104/95 32/67/62 126/106/97
f 32/67/62 31/69/64 126/106/97
f 126/106/97 31/69/64 58/24/24
f 31/69/64 3/11/11 58/24/24
f 61/107/98 66/108/99 9/34/34
f 62/109/100 127/110/101 61/107/98
f 63/19/19 128/111/102 62/109/100
f 61/107/98 127/110/101 66/108/99
f 127/110/101 65/112/103 66/108/99
f 62/109/100 128/111/102 127/110/101
f 128/111/102 129/113/104 127/110/101
f 127/110/101 129/113/104 65/112/103
f 129/113/104 64/25/25 65/112/103
f 63/19/19 39/18/18 128/111/102
f 39/18/18 38/74/69 128/111/102
f 128/111/102 38/74/69 129/113/104
f 38/74/69 37/76/71 129/113/104
f 129/113/104 37/76/71 64/25/25
f 37/76/71 4/14/14 64/25/25
f 67/114/105 72/115/106 10/37/37
f 68/116/107 130/117/108 67/114/105
f 69/22/22 131/118/109 68/116/107
f 67/114/105 130/117/108 72/115/106
f 130/117/108 71/119/110 72/115/106
f 68/116/107 131/118/109 130/117/108
f 131/118/109 132/120/111 130/117/108
f 130/117/108 132/120/111 71/119/110
f 132/121/111 70/26/26 71/122/110
f 69/22/22 42/21/21 131/118/109
f 42/21/21 41/79/74 131/118/109
f 131/118/109 41/79/74 132/120/111
f 41/82/74 40/83/76 132/121/111
f 132/121/111 40/83/76 70/26/26
f 40/83/76 5/17/17 70/26/26
f 54/92/85 75/29/29 7/28/28
f 53/97/89 133/123/112 54/92/85
f 52/23/23 134/124/113 53/97/89
f 54/92/85 133/123/112 75/29/29
f 133/123/112 74/125/114 75/29/29
f 53/97/89 134/124/113 133/123/112
f 134/124/113 135/126/115 133/123/112
f 133/123/112 135/126/115 74/125/114
f 135/126/115 73/127/116 74/125/114
f 52/23/23 45/10/10 134/124/113
f 45/10/10 44/86/79 134/124/113
f 134/124/113 44/86/79 135/126/115
f 44/86/79 43/84/77 135/126/115
f 135/126/115 43/84/77 73/127/116
f 43/84/77 11/40/40 73/127/116
f 60/101/92 78/32/32 8/31/31
f 59/105/96 136/128/117 60/101/92
f 58/24/24 137/129/118 59/105/96
f 60/101/92 136/128/117 78/32/32
f 136/128/117 77/130/119 78/32/32
f 59/105/96 137/129/118 136/128/117
f 137/129/118 138/131/120 136/128/117
f 136/128/117 138/131/120 77/130/119
f 138/132/120 76/133/121 77/134/119
f 58/24/24 51/13/13 137/129/118
f 51/13/13 50/96/86 137/129/118
f 137/129/118 50/96/86 138/131/120
f 50/93/86 49/91/84 138/132/120
f 138/132/120 49/91/84 76/133/121
f 49/91/84 7/28/28 76/133/121
f 66/108/99 81/35/35 9/34/34
f 65/112/103 139/135/122 66/108/99
f 64/25/25 140/136/123 65/112/103
f 66/108/99 139/135/122 81/35/35
f 139/135/122 80/137/124 81/35/35
f 65/112/103 140/136/123 139/135/122
f 140/136/123 141/138/125 139/135/122
f 139/135/122 141/138/125 80/137/124
f 141/138/125 79/139/126 80/137/124
f 64/25/25 57/16/16 140/136/123
f 57/16/16 56/102/93 140/136/123
f 140/136/123 56/102/93 141/138/125
f 56/102/93 55/100/91 141/138/125
f 141/138/125 55/100/91 79/139/126
f 55/100/91 8/31/31 79/139/126
f 72/115/106 84/38/38 10/37/37
f 71/119/110 142/140/127 72/115/106
f 70/26/26 143/141/128 71/122/110
f 72/115/106 142/140/127 84/38/38
f 142/140/127 83/142/129 84/38/38
f 71/122/110 143/141/128 142/143/127
f 143/141/128 144/144/130 142/143/127
f 142/143/127 144/144/130 83/145/129
f 144/144/130 82/146/131 83/145/129
f 70/26/26 63/19/19 143/141/128
f 63/19/19 62/109/100 143/141/128
f 143/141/128 62/109/100 144/144/130
f 62/109/100 61/107/98 144/144/130
f 144/144/130 61/107/98 82/146/131
f 61/107/98 9/34/34 82/146/131
f 48/85/78 87/41/41 11/40/40
f 47/89/82 145/147/132 48/85/78
f 46/27/27 146/148/133 47/89/82
f 48/85/78 145/147/132 87/41/41
f 145/147/132 86/149/134 87/41/41
f 47/89/82 146/148/133 145/147/132
f 146/148/133 147/150/135 145/147/132
f 145/147/132 147/150/135 86/149/134
f 147/150/135 85/151/136 86/149/134
f 46/27/27 69/22/22 146/148/133
f 69/22/22 68/116/107 146/148/133
f 146/148/133 68/116/107 147/150/135
f 68/116/107 67/114/105 147/150/135
f 147/150/135 67/114/105 85/151/136
f 67/114/105 10/37/37 85/151/136
f 88/152/137 93/153/138 12/154/139
f 89/155/140 148/156/141 88/152/137
f 90/30/30 149/157/142 89/155/140
f 88/152/137 148/156/141 93/153/138
f 148/156/141 92/158/143 93/153/138
f 89/155/140 149/157/142 148/156/141
f 149/157/142 150/159/144 148/156/141
f 148/156/141 150/159/144 92/158/143
f 150/159/144 91/42/42 92/158/143
f 90/30/30 75/29/29 149/157/142
f 75/29/29 74/125/114 149/157/142
f 149/157/142 74/125/114 150/159/144
f 74/125/114 73/127/116 150/159/144
f 150/159/144 73/127/116 91/42/42
f 73/127/116 11/40/40 91/42/42
f 94/160/145 88/152/137 12/154/139
f 95/161/146 151/162/147 94/160/145
f 96/33/33 152/163/148 95/164/146
f 94/160/145 151/162/147 88/152/137
f 151/162/147 89/155/140 88/152/137
f 95/161/146 152/165/148 151/162/147
f 152/165/148 153/166/149 151/162/147
f 151/162/147 153/166/149 89/155/140
f 153/166/149 90/30/30 89/155/140
f 96/33/33 78/32/32 152/163/148
f 78/32/32 77/130/119 152/163/148
f 152/165/148 77/134/119 153/166/149
f 77/134/119 76/133/121 153/166/149
f 153/166/149 76/133/121 90/30/30
f 76/133/121 7/28/28 90/30/30
f 97/167/150 94/160/145 12/154/139
f 98/168/151 154/169/152 97/167/150
f 99/36/36 155/170/153 98/171/151
f 97/167/150 154/169/152 94/160/145
f 154/169/152 95/161/146 94/160/145
f 98/171/151 155/170/153 154/172/152
f 155/170/153 156/173/154 154/172/152
f 154/172/152 156/173/154 95/164/146
f 156/173/154 96/33/33 95/164/146
f 99/36/36 81/35/35 155/170/153
f 81/35/35 80/137/124 155/170/153
f 155/170/153 80/137/124 156/173/154
f 80/137/124 79/139/126 156/173/154
f 156/173/154 79/139/126 96/33/33
f 79/139/126 8/31/31 96/33/33
f 100/174/155 97/167/150 12/154/139
f 101/175/156 157/176/157 100/174/155
f 102/39/39 158/177/158 101/175/156
f 100/174/155 157/176/157 97/167/150
f 157/176/157 98/168/151 97/167/150
f 101/175/156 158/177/158 157/176/157
f 158/177/158 159/178/159 157/176/157
f 157/176/157 159/178/159 98/168/151
f 159/179/159 99/36/36 98/171/151
f 102/39/39 84/38/38 158/177/158
f 84/38/38 83/142/129 158/177/158
f 158/177/158 83/142/129 159/178/159
f 83/145/129 82/146/131 159/179/159
f 159/179/159 82/146/131 99/36/36
f 82/146/131 9/34/34 99/36/36
f 93/153/138 100/174/155 12/154/139
f 92/158/143 160/180/160 93/153/138
f 91/42/42 161/181/161 92/158/143
f 93/153/138 160/180/160 100/174/155
f 160/180/160 101/175/156 100/174/155
f 92/158/143 161/181/161 160/180/160
f 161/181/161 162/182/162 160/180/160
f 160/180/160 162/182/162 101/175/156
f 162/182/162 102/39/39 101/175/156
f 91/42/42 87/41/41 161/181/161
f 87/41/41 86/149/134 161/181/161
f 161/181/161 86/149/134 162/182/162
f 86/149/134 85/151/136 162/182/162
f 162/182/162 85/151/136 102/39/39
f 85/151/136 10/37/37 102/39/39
